<svg xmlns="http://www.w3.org/2000/svg" viewBox="0 0 176.41 119.06">
  <defs>
    <style>
      .cls-1 {
        fill: #252510;
      }

      .cls-2 {
        fill: #8abc30;
      }

      .cls-3 {
        fill: #689130;
      }
    </style>
  </defs>
  <title>bonzi-tree</title>
  <g id="Layer_2" data-name="Layer 2">
    <g id="Layer_1-2" data-name="Layer 1">
      <path class="cls-1" d="M55.88,117.91s32.83-1,34.5-.75,26.08.33,26.25,1.33,5.42.38,5.42.38-.71-1.79-2-1.94-1.35.06-1.35.06-.62-1.17-3.92-3.12-8,0-9.46-1.83-4.23-.79-4.4-6,5.83-5.83,7.25-7.83,1-7.42,1.25-8.25S113,86.07,119.88,84c0,0,3.33-2.33,3.92-5.67s.25-5.58-2.5-8.25-1.17-4.67-1.17-4.67,1.33-1.5,5.17-1.5,8.25-1,12.42-.58,9.83-4.5,9.83-4.5l-2.17-5.5s-21.92,5.83-24.25,5.08-4.42-4.33-10.67-4.92c0,0-.42-.33-2.83.42,0,0-2.67,2.58-4.17,2.17s-1.75-2.58-4.83-2.58-12.17,5.33-15.42,2.67c0,0-1.42-1.08.25-3.92s3.83-12.67,3.83-12.67l-6.58-2.08L74.63,50.82s-1.58,4.58-.17,6.5a21.27,21.27,0,0,0,2.75,3.08s-10.5,9.42-15.75,9.83S58.71,74,58.71,74s11.75.83,14.08-1.92,5-7.25,7.33-7.33,2.67-.67,7.58.58S91.13,62,98.29,62.07a9.39,9.39,0,0,1,9,6.42s-1.17,6.5-2,7.67-.17,5.33-1.92,5.92S94.88,85.49,91,85.41,83.29,101.74,82,102.74s-1.83,2.5-7.5,4.33-5.17,7.5-8.25,7.92-3.58,2-10.42,2.17S55.88,117.91,55.88,117.91Z"/>
      <path class="cls-2" d="M139.57,63.47s-9.12-6.94-2.44-9.56c0,0-4.87-4.94,3.75-4.75,0,0-1.31-9.06,7.06-3.75,0,0,2.69-8.44,6.06-.75,0,0,11.13-7.06,13.31,5.19,0,0,10.81-2.75,7.38,7.44,0,0,4.5,3.13-1.06,4.25,0,0,0,9.75-8.69,3.81,0,0-2.87,6.13-5.87-.44,0,0-4.75,6.69-11.69-.56C147.38,64.34,140.75,68,139.57,63.47Z"/>
      <path class="cls-2" d="M38,50.91S50.88,39,53.13,55.41c0,0,10.88-1,7.25,6.38,0,0,9,.5,3.88,7.25,0,0,3.25,11-3.87,6.88,0,0-10.87,6.63-16.87-2,0,0-3.87,5.88-9.62,2.25,0,0-5.88,4.63-10.63-1.25,0,0-6.5,6.25-12.75.25,0,0-8.37,1.13-7.87-3.87,0,0-8.62-6.87,5.38-8.37,0,0,.63-5.37,6.38-3.87,0,0,3.63-14.75,17.63-6.87C32,52.16,34,47.16,38,50.91Z"/>
      <path class="cls-3" d="M76.38,41.74S63.46,52.82,55.46,39c0,0-8.58,8.17-12.67-1.08,0,0-8.58,1.33-4.25-6,0,0-3.83-8.33,2.83-8,0,0-2.33-11.92,10.75-8.75,0,0-1.5-13.17,13.92-4.75,0,0,20.67-25.25,43.92,2.92,0,0,8.58-2.33,10.25,4.92,0,0,10.5-7.25,14,6.5,0,0,12.17,3.58,1,8.83,0,0,.25,10.83-9.33,4.5,0,0-2.33,9.08-11.17,1.17,0,0-1.75,9.5-11.5.58,0,0-3.75,11.33-19,1.42C84.21,41.24,83.38,48.74,76.38,41.74Z"/>
    </g>
  </g>
</svg>
