<svg xmlns="http://www.w3.org/2000/svg" viewBox="0 0 140.31 118.32">
  <defs>
    <style>
      .cls-1 {
        fill: #252510;
      }

      .cls-2 {
        fill: #65892f;
      }
    </style>
  </defs>
  <title>Asset 2</title>
  <g id="Layer_2" data-name="Layer 2">
    <g id="Layer_1-2" data-name="Layer 1">
      <path class="cls-1" d="M56.75,60.82s-1.33,11.17,3,10,5-1.67,6.67-8.17,8.5-1.5,8.5-1.5-6.5,8.83-2,11,9.67-10.5,9.67-10.5l3.5,4s-4.17,3.83-4.33,6.67-.5,3.58-1.08,4.58,1,2.5,1.08,3.58-2.58,4.58-2,7.5-.17,2.92,1.5,6a8.69,8.69,0,0,1-.75,4.08c-.92,1.67,1.75,3.92,3.17,4.42s4.83,1.58,5.42,2.75,3.17-1.17,5.08,1.58,1.5,1.58,1.08,3.92,6.58,2.17,7.58,3.17,5,2.42,3.67,4.42c0,0-1.42-1.5-10.92-2.67a18.18,18.18,0,0,1-3.08-5c-1.17-2.92-12.42-5.58-12.42-5.58s6.42,4.92,5.58,6.83L80.08,108l-7.5.08a3.52,3.52,0,0,0-.25,4.17,4.29,4.29,0,0,0,3.83,2.5c1.33.25,1.83,2.67,1.83,2.67s-1.75-1.25-2-1.33a9.51,9.51,0,0,1-6-.92c-2.92-1.67-3.92-6.33-3.92-6.33l-.58,1.33s-2.83.67-3.67,2a14.08,14.08,0,0,0-1.33,3.58l-.83-2.83L61,110.74l.25-2.58s-1.08-2.25-4.25-.83-1.17,2.42-1.75,2.67S52,113.57,52,113.57l-4.5-.17,3.67-1.25s-1.58-1.17.67-3.5a24.33,24.33,0,0,0,2.92-3.42s-1.17-1.17-4.67-.08-3.17-.58-5.75.75-1.42,1.33-2.5,2.17-3.83-1-5-.58-4.67,3.33-4.67,3.33l-5.08-.08s7.5-3.75,8.25-5.58,5.92.42,6.83-.58,9.08-5.08,10.42-4.42,3.08,1.58,4,1,.17-3.25,1.67-3.5-1-3.42-.25-5.25-.92-1.58.92-3.25-3.33-4.25-2.67-7.83,1.42-3,.67-6-7.17-10-7.17-10Z"/>
      <path class="cls-2" d="M56.66,4.74S66.16-7,70.41,6.49c0,0,19-7.5,16,9.75,0,0,9-3.75,5,4.25,0,0,26.5-2.75,24.5,20.75,0,0,15.25-1,15.25,9.25,0,0,10.5-1.75,9,4.5s-2.5,4.75-6.5,5c0,0,.95,3.21-10.5,5.5-1.25.25-.5,7.5-16.5,3.5,0,0-4.5,6.25-11-1.75,0,0-5.25,9-15.5-1.75,0,0-1.75,3.5-6.25,1.25,0,0-5.25,7.5-9.75.25,0,0-4.5,4-6.5-.75,0,0-7.25,11.25-20-.75,0,0-15.25,9.5-23.5-4.75,0,0-9.25,3.75-10-2.75,0,0-12-10.75,4.75-6.5,0,0,.5-11,13-9.25,0,0-2.25-11,10.5-11.25,0,0-5-8.5-.75-13.5s12.75-4,12.75-4S42.91-.26,56.66,4.74Z"/>
    </g>
  </g>
</svg>
